RBDS015runT35_grf
version=1
nRows=12
nColumns=19
inDegrees=no
endheader
time	ground_force_r_vx	ground_force_r_vy	ground_force_r_vz	ground_force_r_px	ground_force_r_py	ground_force_r_pz	ground_force_r_mx	ground_force_r_my	ground_force_r_mz	ground_force_l_vx	ground_force_l_vy	ground_force_l_vz	ground_force_l_px	ground_force_l_py	ground_force_l_pz	ground_force_l_mx	ground_force_l_my	ground_force_l_mz
     14.99900000	      0.00000000	      0.00000000	      0.00000000	      0.00000000	      0.00000000	      0.00000000	      0.00000000	      0.00000000	      0.00000000	    125.28241116	    222.27980489	     -2.36284288	      1.76732225	      0.00000000	      0.92881033	     -0.00000000	     -3.32117896	      0.00000000
     15.00000000	      0.00000000	      0.00000000	      0.00000000	      0.00000000	      0.00000000	      0.00000000	      0.00000000	      0.00000000	      0.00000000	    120.95636852	    208.92782832	     -1.90061851	      1.76468683	      0.00000000	      0.92847979	     -0.00000000	     -3.73292902	      0.00000000
     15.00100000	      0.00000000	      0.00000000	      0.00000000	      0.00000000	      0.00000000	      0.00000000	      0.00000000	      0.00000000	      0.00000000	    116.75119935	    196.62921417	     -1.43270228	      1.76220244	      0.00000000	      0.92815090	     -0.00000000	     -4.14399102	      0.00000000
     15.00200000	      0.00000000	      0.00000000	      0.00000000	      0.00000000	      0.00000000	      0.00000000	      0.00000000	      0.00000000	      0.00000000	    112.54603018	    184.33060003	     -0.96478605	      1.75971805	      0.00000000	      0.92782201	     -0.00000000	     -4.55505303	      0.00000000
     15.00300000	      0.00000000	      0.00000000	      0.00000000	      0.00000000	      0.00000000	      0.00000000	      0.00000000	      0.00000000	      0.00000000	    108.34086101	    172.03198588	     -0.49686982	      1.75723366	      0.00000000	      0.92749312	     -0.00000000	     -4.96611503	      0.00000000
     15.00400000	      0.00000000	      0.00000000	      0.00000000	      0.00000000	      0.00000000	      0.00000000	      0.00000000	      0.00000000	      0.00000000	    104.26249856	    160.46274299	     -0.03334971	      1.75486189	      0.00000000	      0.92716925	     -0.00000000	     -5.37213191	      0.00000000
     15.00500000	      0.00000000	      0.00000000	      0.00000000	      0.00000000	      0.00000000	      0.00000000	      0.00000000	      0.00000000	      0.00000000	    100.24753948	    149.25818572	      0.42797235	      1.75254644	      0.00000000	      0.92684790	      0.00000000	     -5.77562622	      0.00000000
     15.00600000	      0.00000000	      0.00000000	      0.00000000	      0.00000000	      0.00000000	      0.00000000	      0.00000000	      0.00000000	      0.00000000	     96.23258040	    138.05362846	      0.88929440	      1.75023098	      0.00000000	      0.92652655	      0.00000000	     -6.17912054	      0.00000000
     15.00700000	      0.00000000	      0.00000000	      0.00000000	      0.00000000	      0.00000000	      0.00000000	      0.00000000	      0.00000000	      0.00000000	     92.30116968	    127.22208838	      1.34475977	      1.74797707	      0.00000000	      0.92620959	      0.00000000	     -6.57780600	      0.00000000
     15.00800000	      0.00000000	      0.00000000	      0.00000000	      0.00000000	      0.00000000	      0.00000000	      0.00000000	      0.00000000	      0.00000000	     88.53685566	    117.13658269	      1.78851174	      1.74584628	      0.00000000	      0.92590143	      0.00000000	     -6.96687375	      0.00000000
     15.00900000	      0.00000000	      0.00000000	      0.00000000	      0.00000000	      0.00000000	      0.00000000	      0.00000000	      0.00000000	      0.00000000	     84.77254163	    107.05107700	      2.23226372	      1.74371549	      0.00000000	      0.92559326	      0.00000000	     -7.35594150	      0.00000000
     15.01000000	      0.00000000	      0.00000000	      0.00000000	      0.00000000	      0.00000000	      0.00000000	      0.00000000	      0.00000000	      0.00000000	     81.00822761	     96.96557131	      2.67601569	      1.74158470	      0.00000000	      0.92528509	      0.00000000	     -7.74500926	      0.00000000
